<svg width="48" height="48" viewBox="0 0 48 48" fill="none" xmlns="http://www.w3.org/2000/svg">
<circle cx="24" cy="24" r="24" fill="#FF6B35"/>
<svg x="8" y="8" width="32" height="32" viewBox="0 0 32 32" fill="none">
<path d="M16 6C18.5 6 20.5 8 20.5 10.5V12.5C20.5 13.5 21 14.5 21.5 15.5L23 18C23.5 19 23 20 22 20H10C9 20 8.5 19 9 18L10.5 15.5C11 14.5 11.5 13.5 11.5 12.5V10.5C11.5 8 13.5 6 16 6Z" fill="white"/>
<path d="M8 24H24V26C24 28.5 22 30 19.5 30H12.5C10 30 8 28.5 8 26V24Z" fill="white"/>
<circle cx="14" cy="16" r="1.5" fill="#FF6B35"/>
<circle cx="18" cy="16" r="1.5" fill="#FF6B35"/>
<path d="M14 20C14 21 15 22 16 22C17 22 18 21 18 20" stroke="#FF6B35" stroke-width="1.5" stroke-linecap="round"/>
</svg>
</svg>
